<svg xmlns="http://www.w3.org/2000/svg" width="700" height="340" viewBox="0 0 700 340">
<defs><linearGradient id="bg" x1="0" y1="0" x2="1" y2="1"><stop stop-color="#052917"/><stop offset="1" stop-color="#0a5a2b"/></linearGradient><filter id="g"><feGaussianBlur stdDeviation="5" result="b"/><feMerge><feMergeNode in="b"/><feMergeNode in="SourceGraphic"/></feMerge></filter></defs>
<rect x="8" y="8" width="684" height="324" rx="30" fill="url(#bg)" stroke="#44f26a" stroke-width="4"/>
<text x="44" y="72" font-family="Segoe UI,Arial" font-weight="700" font-size="34" fill="#fff">AnMaCha <tspan fill="#18b7ff">Cast</tspan></text>
<g fill="#70ff87"><rect x="64" y="149" width="90" height="80" rx="20"/><circle cx="109" cy="142" r="43"/><rect x="76" y="215" width="18" height="50" rx="9"/><rect x="124" y="215" width="18" height="50" rx="9"/><rect x="42" y="159" width="18" height="58" rx="9"/><rect x="158" y="159" width="18" height="58" rx="9"/><path d="M82 104l-13-22M136 104l13-22" stroke="#70ff87" stroke-width="7" stroke-linecap="round"/></g>
<text x="210" y="158" font-family="Segoe UI,Arial" font-weight="700" font-size="42" fill="#fff">F-Droid</text>
<text x="210" y="215" font-family="Segoe UI,Arial" font-size="24" fill="#d6ffe0">Eigenes Repository, mit Updates</text>
<circle cx="590" cy="235" r="54" fill="#083719" stroke="#44f26a" stroke-width="5" filter="url(#g)"/>
<path d="M590 193v58m-23-22 23 23 23-23M558 269h64" stroke="#fff" stroke-width="9" stroke-linecap="round" stroke-linejoin="round"/>
</svg>